<svg width="98" height="40" viewBox="0 0 98 40" fill="none" xmlns="http://www.w3.org/2000/svg">
  <path
    d="M24.1722 32.1561L21.9287 32.6469L22.3581 33.4666C22.5855 33.9008 22.8517 34.3135 23.1535 34.6998L24.4527 36.3627L27.2571 35.3111C25.5043 34.7502 24.663 32.9273 24.1722 32.1561Z"
    fill="#020202" />
  <path
    d="M28.3136 29.4935L26.1402 29.844L26.1616 29.9236C26.4708 31.0718 27.0279 32.1383 27.7939 33.0479L28.8745 34.3311L31.3985 32.368C29.6457 31.8071 28.524 29.844 28.3136 29.4935Z"
    fill="#020202" />
  <mask id="mask0_1_303" style="mask-type:alpha" maskUnits="userSpaceOnUse" x="5" y="3" width="30"
    height="30">
    <circle cx="19.6899" cy="18.4153" r="14.4427" fill="white" />
  </mask>
  <g mask="url(#mask0_1_303)">
    <circle cx="20.2555" cy="6.77478" r="10.5165" stroke="#020202" stroke-width="2.24353" />
    <circle cx="20.2613" cy="6.77222" r="5.60883" stroke="#020202" stroke-width="2.24353" />
    <circle cx="32.5916" cy="27.9479" r="10.5165" stroke="#020202" stroke-width="2.24353" />
    <circle cx="32.5974" cy="27.9456" r="5.60883" stroke="#020202" stroke-width="2.24353" />
    <circle cx="8.06018" cy="27.9479" r="10.5165" stroke="#020202" stroke-width="2.24353" />
    <circle cx="8.06541" cy="27.9456" r="5.60883" stroke="#020202" stroke-width="2.24353" />
  </g>
  <path
    d="M58.6951 28.6206L60.1095 30.3179C59.0251 31.5909 57.54 32.2745 55.7956 32.2745C53.5561 32.2745 51.8824 31.4023 49.4543 28.8564C44.8339 28.4556 41.5101 24.9903 41.5101 20.4171C41.5101 15.5374 45.2818 11.9307 50.3973 11.9307C55.5127 11.9307 59.2844 15.5138 59.2844 20.4171C59.2844 24.401 56.7857 27.5127 53.1082 28.5499C54.0511 29.5636 54.8998 29.9408 55.8663 29.9408C56.9507 29.9408 57.8936 29.4929 58.6951 28.6206ZM44.5982 20.4171C44.5982 23.7881 47.0734 26.2161 50.3973 26.2161C53.7211 26.2161 56.1963 23.7881 56.1963 20.4171C56.1963 17.0461 53.7211 14.618 50.3973 14.618C47.0734 14.618 44.5982 17.0461 44.5982 20.4171ZM63.735 14.0051C62.6507 14.0051 61.8492 13.2272 61.8492 12.2371C61.8492 11.247 62.6507 10.4691 63.735 10.4691C64.8194 10.4691 65.6209 11.1999 65.6209 12.1664C65.6209 13.2036 64.843 14.0051 63.735 14.0051ZM62.2499 28.6678V16.0796H65.1966V28.6678H62.2499ZM71.8693 17.9183C72.718 16.5982 74.2502 15.9381 76.3483 15.9381V18.7434C76.089 18.6962 75.8768 18.6727 75.6647 18.6727C73.4252 18.6727 72.0108 19.9928 72.0108 22.5623V28.6678H69.0641V16.0796H71.8693V17.9183ZM84.3905 28.8328C80.5245 28.8328 77.6957 26.1454 77.6957 22.3737C77.6957 18.6019 80.5245 15.9381 84.3905 15.9381C88.3037 15.9381 91.1089 18.6019 91.1089 22.3737C91.1089 26.1454 88.3037 28.8328 84.3905 28.8328ZM84.3905 26.3104C86.5357 26.3104 88.1387 24.7782 88.1387 22.3737C88.1387 19.9692 86.5357 18.4369 84.3905 18.4369C82.2689 18.4369 80.6659 19.9692 80.6659 22.3737C80.6659 24.7782 82.2689 26.3104 84.3905 26.3104Z"
    fill="#020202" />
</svg>