<svg width="36" height="36" viewBox="0 0 36 36" fill="none" xmlns="http://www.w3.org/2000/svg">
  <g clip-path="url(#clip0_1_471)">
    <path
      d="M18 0C27.9414 0 36 8.0586 36 18C36 27.9414 27.9414 36 18 36C8.0586 36 0 27.9414 0 18C0 8.0586 8.0586 0 18 0ZM18 2.511C13.8921 2.511 9.95237 4.14287 7.04762 7.04762C4.14287 9.95237 2.511 13.8921 2.511 18C2.511 22.1079 4.14287 26.0476 7.04762 28.9524C9.95237 31.8571 13.8921 33.489 18 33.489C22.1079 33.489 26.0476 31.8571 28.9524 28.9524C31.8571 26.0476 33.489 22.1079 33.489 18C33.489 13.8921 31.8571 9.95237 28.9524 7.04762C26.0476 4.14287 22.1079 2.511 18 2.511ZM21.6864 6.2784C22.8567 6.72083 23.951 7.34267 24.93 8.1216C25.1544 8.2944 25.3722 8.4786 25.5834 8.6742C25.6218 8.7078 25.659 8.7438 25.695 8.7822C26.2854 9.3276 26.8218 9.9414 27.297 10.6002L27.495 10.8648C27.609 11.0352 27.7194 11.2092 27.8262 11.3868C27.9126 11.526 27.996 11.6676 28.0764 11.8116C28.1676 11.9724 28.2552 12.1362 28.3392 12.303C28.4328 12.489 28.5222 12.6786 28.6074 12.8718C28.6668 13.0032 28.7334 13.1382 28.7874 13.2786C28.9182 13.605 29.0364 13.9362 29.142 14.2722L29.2356 14.6142C29.4161 15.2551 29.5455 15.9094 29.6226 16.5708C29.6352 16.6896 29.6532 16.8156 29.6622 16.9326C29.6994 17.3202 29.7192 17.7102 29.7216 18.1026C29.7211 18.8694 29.6506 19.6346 29.511 20.3886L29.439 20.7792C29.367 21.12 29.283 21.456 29.187 21.7872C28.2708 21.3678 27.1944 20.7504 26.9136 20.0718C26.4024 18.8478 25.0416 18.2358 24.4872 16.659C23.5746 14.049 24.786 14.1174 24.9552 12.4974C25.0344 11.7378 24.4872 11.5794 23.7654 11.889C22.0806 12.5964 21.51 12.3246 21.1698 11.0556C20.8296 9.7902 21.1698 9.4374 21.1698 9.4374C20.0214 9.5634 19.9782 8.1648 20.574 7.812C20.988 7.5744 21.339 6.8454 21.6864 6.2784ZM16.8732 14.0346C17.9352 13.5486 18.9162 13.374 18.7866 12.5388C18.6606 11.7126 18.3618 11.097 16.7022 11.097C15.0426 11.097 15.7662 13.374 14.4054 12.015C13.0446 10.665 14.7024 11.0142 15.3828 10.7064C16.065 10.3968 16.7454 9.1278 15.5538 9.0378C14.364 8.9532 14.6178 9.5634 13.6818 9.2178C12.7458 8.865 12.321 10.44 11.7234 10.2204C11.331 10.0728 10.278 9.2628 9.5796 8.4654C8.15448 9.70494 7.02626 11.249 6.2784 12.9834C6.4818 15.336 7.7256 16.5708 7.7256 16.5708C7.7256 16.5708 8.3646 18.1026 12.195 19.9854C12.195 19.9854 12.915 20.0286 12.0654 19.1556C11.2158 18.279 10.278 17.1846 11.3418 16.6176C12.4038 16.0434 12.7044 16.092 12.96 17.145C13.2138 18.1962 14.067 17.577 14.1498 16.5708C14.2362 15.5682 15.8094 14.5206 16.8732 14.0346ZM16.0632 19.3248C17.8956 19.3248 17.7246 19.8954 19.1718 21.1698C20.6172 22.437 19.8522 23.706 19.1268 24.6708C18.405 25.632 17.766 26.7228 17.4258 28.6992C17.0838 30.6684 16.191 29.2644 15.8958 28.7838C15.597 28.2996 15.129 27.864 15.2586 25.8498C15.3846 23.8374 14.022 25.0218 13.5558 22.3938C13.0878 19.7694 14.2362 19.3266 16.065 19.3266M25.0236 21.0618C25.5114 20.7504 26.6796 21.5622 26.4276 22.4172C26.1702 23.2722 25.3638 22.7898 24.9588 22.4172C24.5538 22.0464 24.5322 21.3678 25.0236 21.0618Z"
      fill="url(#paint0_linear_1_471)" />
  </g>
  <defs>
    <linearGradient id="paint0_linear_1_471" x1="18" y1="-5.51998e-07" x2="36.5223" y2="36.5291"
      gradientUnits="userSpaceOnUse">
      <stop stop-color="#6744F2" />
      <stop offset="1" stop-color="#E8E2FF" />
    </linearGradient>
    <clipPath id="clip0_1_471">
      <rect width="36" height="36" fill="white" />
    </clipPath>
  </defs>
</svg>