<svg width="36" height="36" viewBox="0 0 36 36" fill="none" xmlns="http://www.w3.org/2000/svg">
  <path
    d="M22.884 23.8547C22.858 23.8185 22.8236 23.789 22.7839 23.7688C22.7441 23.7486 22.7001 23.7383 22.6555 23.7387H21.1016C20.873 23.7387 20.7395 23.9988 20.873 24.1852L23.4676 27.7746C23.5801 27.9293 23.8086 27.9293 23.9211 27.7746L27.9359 22.2199C28.0695 22.0336 27.9359 21.7734 27.7074 21.7734H26.15C26.0586 21.7734 25.9742 21.8156 25.9215 21.8895L23.6891 24.9762L22.884 23.8547ZM24.4062 11.0859V9.39844C24.4062 9.24375 24.2797 9.11719 24.125 9.11719H10.625C10.4703 9.11719 10.3438 9.24375 10.3438 9.39844V11.0859C10.3438 11.2406 10.4703 11.3672 10.625 11.3672H24.125C24.2797 11.3672 24.4062 11.2406 24.4062 11.0859ZM10.625 14.1797C10.4703 14.1797 10.3438 14.3062 10.3438 14.4609V16.1484C10.3438 16.3031 10.4703 16.4297 10.625 16.4297H17.0938C17.2484 16.4297 17.375 16.3031 17.375 16.1484V14.4609C17.375 14.3062 17.2484 14.1797 17.0938 14.1797H10.625ZM17.0938 30.2812H7.53125V5.53125H27.2188V15.9375C27.2188 16.0922 27.3453 16.2188 27.5 16.2188H29.4688C29.6234 16.2188 29.75 16.0922 29.75 15.9375V4.125C29.75 3.50273 29.2473 3 28.625 3H6.125C5.50273 3 5 3.50273 5 4.125V31.6875C5 32.3098 5.50273 32.8125 6.125 32.8125H17.0938C17.2484 32.8125 17.375 32.6859 17.375 32.5312V30.5625C17.375 30.4078 17.2484 30.2812 17.0938 30.2812ZM31.2477 19.0031L24.4977 16.6582C24.466 16.6477 24.4379 16.6441 24.4062 16.6441C24.3746 16.6441 24.343 16.6477 24.3148 16.6582L17.5648 19.0031C17.5097 19.0219 17.4618 19.0573 17.4277 19.1046C17.3937 19.1519 17.3753 19.2086 17.375 19.2668V28.0945C17.375 28.1824 17.4137 28.2633 17.484 28.316L24.234 33.5965C24.2832 33.6352 24.3465 33.6562 24.4062 33.6562C24.466 33.6562 24.5293 33.6352 24.5785 33.5965L31.3285 28.316C31.3953 28.2633 31.4375 28.1824 31.4375 28.0945V19.2668C31.4375 19.1473 31.3602 19.0418 31.2477 19.0031ZM29.2578 27.177L24.4062 30.9703L19.5547 27.177V20.6133L24.4062 18.9258L29.2578 20.6133V27.177Z"
    fill="url(#paint0_linear_1_462)" />
  <defs>
    <linearGradient id="paint0_linear_1_462" x1="18.2188" y1="3" x2="35.3044" y2="32.0587"
      gradientUnits="userSpaceOnUse">
      <stop stop-color="#6744F2" />
      <stop offset="1" stop-color="#E8E2FF" />
    </linearGradient>
  </defs>
</svg>