<svg width="36" height="35" viewBox="0 0 36 35" fill="none" xmlns="http://www.w3.org/2000/svg">
  <path
    d="M22.0153 23.1274C22.1454 22.0446 22.548 21.0124 23.1853 20.1274H17.1448V17.1274H29.1358C30.1701 17.1341 31.1914 17.3605 32.1328 17.7889V5.13041C32.133 4.73619 32.0555 4.3458 31.9047 3.98155C31.754 3.6173 31.5329 3.28634 31.2541 3.00759C30.9754 2.72883 30.6444 2.50775 30.2802 2.35698C29.9159 2.20621 29.5255 2.12871 29.1313 2.12891H5.13581C4.74147 2.12851 4.35092 2.20587 3.9865 2.35655C3.62207 2.50723 3.29094 2.72828 3.01202 3.00706C2.73311 3.28583 2.51189 3.61686 2.36103 3.9812C2.21017 4.34555 2.13262 4.73606 2.13281 5.13041V26.1274C2.13242 26.5219 2.20982 26.9126 2.3606 27.2771C2.51137 27.6416 2.73256 27.9728 3.01149 28.2517C3.29043 28.5307 3.62163 28.7518 3.98615 28.9026C4.35067 29.0534 4.74134 29.1308 5.13581 29.1304H20.1313V27.9289C20.1396 27.3076 20.2765 26.6947 20.5333 26.1289H11.1313V23.1289L22.0153 23.1274ZM29.1313 14.1274H17.1403V11.1274H29.1313V14.1274ZM11.1313 5.12741H29.1313V8.12741H11.1313V5.12741ZM8.11481 26.1274H5.11481V23.1274H8.11481V26.1274ZM8.11481 8.12741H5.11481V5.12741H8.11481V8.12741ZM11.1223 11.1274H14.1223V14.1274H11.1223V11.1274ZM11.1268 20.1274V17.1274H14.1268V20.1274H11.1268ZM33.3313 26.1289V23.8789C33.2141 22.8471 32.7212 21.8945 31.9466 21.2028C31.1719 20.5112 30.1698 20.1289 29.1313 20.1289C28.0928 20.1289 27.0907 20.5112 26.3161 21.2028C25.5414 21.8945 25.0485 22.8471 24.9313 23.8789V26.1289C24.4643 26.1605 24.0246 26.3603 23.6936 26.6912C23.3627 27.0222 23.1629 27.4619 23.1313 27.9289V33.1789C23.1333 33.6701 23.3192 34.1427 23.6524 34.5037C23.9856 34.8646 24.4418 35.0877 24.9313 35.1289H33.1813C33.6725 35.1269 34.1451 34.941 34.5061 34.6078C34.867 34.2746 35.0901 33.8184 35.1313 33.3289V28.0789C35.1293 27.5877 34.9434 27.1151 34.6102 26.7541C34.277 26.3932 33.8208 26.1701 33.3313 26.1289ZM31.3813 26.1289H26.8813V23.8789C26.8953 23.6011 26.9653 23.329 27.0872 23.079C27.209 22.829 27.3802 22.6062 27.5904 22.424C27.8006 22.2419 28.0455 22.1041 28.3103 22.019C28.5751 21.9339 28.8544 21.9033 29.1313 21.9289C29.4083 21.9033 29.6876 21.9339 29.9524 22.019C30.2172 22.1041 30.462 22.2419 30.6722 22.424C30.8824 22.6062 31.0536 22.829 31.1754 23.079C31.2973 23.329 31.3673 23.6011 31.3813 23.8789V26.1289Z"
    fill="url(#paint0_linear_1_454)" />
  <defs>
    <linearGradient id="paint0_linear_1_454" x1="18.6321" y1="2.12891" x2="35.6113" y2="35.6133"
      gradientUnits="userSpaceOnUse">
      <stop stop-color="#6744F2" />
      <stop offset="1" stop-color="#E8E2FF" />
    </linearGradient>
  </defs>
</svg>