<svg width="36" height="36" viewBox="0 0 36 36" fill="none" xmlns="http://www.w3.org/2000/svg">
  <g clip-path="url(#clip0_1_479)">
    <path
      d="M3.46822e-06 14.6234C-0.00227484 11.3139 1.11799 8.10147 3.17773 5.51107C5.23747 2.92067 8.11489 1.10545 11.3398 0.362046C14.5647 -0.38136 17.9464 -0.00899966 20.9323 1.41828C23.9182 2.84556 26.3317 5.24336 27.7785 8.21986C29.8727 9.24077 31.6927 10.7472 33.0869 12.6138C34.4812 14.4803 35.4093 16.653 35.794 18.9508C36.1788 21.2485 36.009 23.605 35.2988 25.8239C34.5887 28.0428 33.3587 30.06 31.7113 31.7074C30.0639 33.3548 28.0467 34.5848 25.8278 35.295C23.6089 36.0051 21.2524 36.1749 18.9546 35.7901C16.6568 35.4054 14.4842 34.4773 12.6177 33.083C10.7511 31.6888 9.24466 29.8688 8.22375 27.7746C5.75773 26.5742 3.67897 24.7045 2.22482 22.379C0.770659 20.0535 -0.000287107 17.366 3.46822e-06 14.6234ZM11.574 28.9289C12.6481 30.3219 14.0069 31.4699 15.5597 32.2964C17.1125 33.1229 18.8237 33.6088 20.5792 33.7218C22.3346 33.8348 24.0939 33.5722 25.7399 32.9516C27.3859 32.331 28.8806 31.3666 30.1244 30.1228C31.3683 28.8789 32.3327 27.3842 32.9533 25.7383C33.5739 24.0923 33.8364 22.333 33.7234 20.5775C33.6105 18.8221 33.1245 17.1109 32.298 15.5581C31.4716 14.0053 30.3235 12.6465 28.9305 11.5724C29.44 13.9584 29.3444 16.4339 28.6526 18.7735C27.9607 21.1131 26.6945 23.2425 24.9693 24.9677C23.2442 26.6929 21.1148 27.9591 18.7752 28.6509C16.4355 29.3428 13.96 29.4383 11.574 28.9289ZM9.92475 26.0736C10.7438 26.4126 11.6018 26.6601 12.4988 26.8161L9.18225 23.4996C9.33825 24.3951 9.58575 25.2531 9.92475 26.0736ZM15.8063 26.9421C16.7032 26.8572 17.5882 26.6746 18.4455 26.3976L9.8415 17.7959C9.53902 18.611 9.31598 19.4534 9.1755 20.3114L15.8063 26.9421ZM20.6595 25.4301C21.3285 25.0551 21.957 24.6231 22.545 24.1341L12.1905 13.7819C11.6986 14.363 11.2568 14.9847 10.8698 15.6404L20.6595 25.4301ZM24.1358 22.5411C24.6233 21.9561 25.0553 21.3284 25.4318 20.6579L15.6443 10.8659C14.9878 11.2528 14.3654 11.6946 13.7835 12.1866L24.1335 22.5411H24.1358ZM26.3993 18.4416C26.6738 17.5986 26.8553 16.7196 26.9438 15.8046L20.313 9.17386C19.443 9.31786 18.6045 9.53986 17.7975 9.83986L26.3993 18.4439V18.4416ZM26.8178 12.4971C26.6641 11.6148 26.4152 10.7517 26.0753 9.92311C25.2466 9.5832 24.3836 9.33424 23.5013 9.18061L26.8178 12.4971Z"
      fill="url(#paint0_linear_1_479)" />
  </g>
  <defs>
    <linearGradient id="paint0_linear_1_479" x1="17.9974" y1="-0.0117193" x2="36.5235" y2="36.5168"
      gradientUnits="userSpaceOnUse">
      <stop stop-color="#6744F2" />
      <stop offset="1" stop-color="#E8E2FF" />
    </linearGradient>
    <clipPath id="clip0_1_479">
      <rect width="36" height="36" fill="white" />
    </clipPath>
  </defs>
</svg>