<svg width="24" height="24" viewBox="0 0 24 24" fill="none" xmlns="http://www.w3.org/2000/svg">
  <path
    d="M21.1202 15.5559C20.3065 14.1562 19.8743 12.1472 19.8743 9.75C19.8743 7.66142 19.0446 5.65838 17.5678 4.18153C16.0909 2.70469 14.0879 1.875 11.9993 1.875C9.91071 1.875 7.90768 2.70469 6.43083 4.18153C4.95398 5.65838 4.12429 7.66142 4.12429 9.75C4.12429 12.1481 3.69398 14.1562 2.88023 15.5559C2.71418 15.8414 2.62616 16.1656 2.62501 16.4958C2.62386 16.8261 2.70962 17.1509 2.87367 17.4375C3.03668 17.7243 3.27329 17.9624 3.55906 18.1272C3.84484 18.292 4.16942 18.3775 4.49929 18.375H19.4993C19.8287 18.377 20.1527 18.2913 20.4379 18.1265C20.7232 17.9617 20.9593 17.7239 21.1221 17.4375C21.2869 17.1513 21.3734 16.8267 21.3731 16.4965C21.3728 16.1662 21.2856 15.8418 21.1202 15.5559ZM5.12367 16.125C5.95336 14.4375 6.37429 12.2944 6.37429 9.75C6.37429 8.25816 6.96693 6.82742 8.02182 5.77252C9.07671 4.71763 10.5075 4.125 11.9993 4.125C13.4911 4.125 14.9219 4.71763 15.9768 5.77252C17.0317 6.82742 17.6243 8.25816 17.6243 9.75C17.6243 12.2934 18.0443 14.4375 18.874 16.125H5.12367ZM16.1243 21C16.1243 21.2984 16.0058 21.5845 15.7948 21.7955C15.5838 22.0065 15.2977 22.125 14.9993 22.125H8.99929C8.70093 22.125 8.41478 22.0065 8.2038 21.7955C7.99282 21.5845 7.87429 21.2984 7.87429 21C7.87429 20.7016 7.99282 20.4155 8.2038 20.2045C8.41478 19.9935 8.70093 19.875 8.99929 19.875H14.9993C15.2977 19.875 15.5838 19.9935 15.7948 20.2045C16.0058 20.4155 16.1243 20.7016 16.1243 21Z"
    fill="black" />
</svg>