<svg width="17" height="17" viewBox="0 0 17 17" fill="none" xmlns="http://www.w3.org/2000/svg">
  <path
    d="M13.2965 2.5C13.6502 2.5 13.9893 2.64048 14.2394 2.89052C14.4894 3.14057 14.6299 3.47971 14.6299 3.83333V13.1667C14.6299 13.5203 14.4894 13.8594 14.2394 14.1095C13.9893 14.3595 13.6502 14.5 13.2965 14.5H3.96322C3.60959 14.5 3.27046 14.3595 3.02041 14.1095C2.77036 13.8594 2.62988 13.5203 2.62988 13.1667V3.83333C2.62988 3.47971 2.77036 3.14057 3.02041 2.89052C3.27046 2.64048 3.60959 2.5 3.96322 2.5H13.2965ZM12.9632 12.8333V9.3C12.9632 8.7236 12.7342 8.1708 12.3267 7.76322C11.9191 7.35564 11.3663 7.12667 10.7899 7.12667C10.2232 7.12667 9.56322 7.47333 9.24322 7.99333V7.25333H7.38322V12.8333H9.24322V9.54667C9.24322 9.03333 9.65655 8.61333 10.1699 8.61333C10.4174 8.61333 10.6548 8.71167 10.8298 8.8867C11.0049 9.06173 11.1032 9.29913 11.1032 9.54667V12.8333H12.9632ZM5.21655 6.20667C5.51359 6.20667 5.79847 6.08867 6.00851 5.87863C6.21855 5.66859 6.33655 5.38371 6.33655 5.08667C6.33655 4.46667 5.83655 3.96 5.21655 3.96C4.91774 3.96 4.63117 4.0787 4.41988 4.28999C4.20858 4.50128 4.08988 4.78786 4.08988 5.08667C4.08988 5.70667 4.59655 6.20667 5.21655 6.20667ZM6.14322 12.8333V7.25333H4.29655V12.8333H6.14322Z"
    fill="black" />
</svg>