<svg width="24" height="25" viewBox="0 0 24 25" fill="none" xmlns="http://www.w3.org/2000/svg">
  <path
    d="M12 18.24C13.6569 18.24 15 15.6701 15 12.5C15 9.32989 13.6569 6.76 12 6.76C10.3431 6.76 9 9.32989 9 12.5C9 15.6701 10.3431 18.24 12 18.24Z"
    fill="#732EFE" />
  <path
    d="M7.5 12.5C7.5 11.53 7.73 8.34 10.53 6C9.75 5.69 8.9 5.5 8 5.5C4.14 5.5 1 8.64 1 12.5C1 16.36 4.14 19.5 8 19.5C8.9 19.5 9.75 19.31 10.53 19C7.73 16.66 7.5 13.47 7.5 12.5Z"
    fill="#732EFE" />
  <path
    d="M16 5.5C15.1 5.5 14.25 5.69 13.47 6C14.08 6.51 14.57 7.07 14.96 7.63C15.29 7.55 15.64 7.5 16 7.5C18.76 7.5 21 9.74 21 12.5C21 15.26 18.76 17.5 16 17.5C15.64 17.5 15.29 17.45 14.96 17.37C14.57 17.93 14.08 18.49 13.47 19C14.25 19.31 15.1 19.5 16 19.5C19.86 19.5 23 16.36 23 12.5C23 8.64 19.86 5.5 16 5.5Z"
    fill="#732EFE" />
</svg>