<svg width="47" height="46" viewBox="0 0 47 46" fill="none" xmlns="http://www.w3.org/2000/svg">
  <path
    d="M41.0914 18.4719C40.4086 17.7711 39.7078 17.0344 39.4383 16.4055C39.1688 15.7766 39.1867 14.8422 39.1688 13.8898C39.1508 12.1469 39.1148 10.1523 37.7313 8.76875C36.3477 7.38516 34.3531 7.34922 32.6102 7.33125C31.6578 7.31328 30.6875 7.29531 30.0945 7.06172C29.5016 6.82812 28.7289 6.09141 28.0281 5.40859C26.7883 4.22266 25.3687 2.875 23.5 2.875C21.6313 2.875 20.2117 4.22266 18.9719 5.40859C18.2711 6.09141 17.5344 6.79219 16.9055 7.06172C16.2766 7.33125 15.3422 7.31328 14.3898 7.33125C12.6469 7.34922 10.6523 7.38516 9.26875 8.76875C7.88516 10.1523 7.84922 12.1469 7.83125 13.8898C7.81328 14.8422 7.79531 15.8125 7.56172 16.4055C7.32812 16.9984 6.59141 17.7711 5.90859 18.4719C4.72266 19.7117 3.375 21.1313 3.375 23C3.375 24.8687 4.72266 26.2883 5.90859 27.5281C6.59141 28.2289 7.29219 28.9656 7.56172 29.5945C7.83125 30.2234 7.81328 31.1578 7.83125 32.1102C7.84922 33.8531 7.88516 35.8477 9.26875 37.2313C10.6523 38.6148 12.6469 38.6508 14.3898 38.6688C15.3422 38.6867 16.3125 38.7047 16.9055 38.9383C17.4984 39.1719 18.2711 39.9086 18.9719 40.5914C20.2117 41.7773 21.6313 43.125 23.5 43.125C25.3687 43.125 26.7883 41.7773 28.0281 40.5914C28.7289 39.9086 29.4656 39.2078 30.0945 38.9383C30.7234 38.6688 31.6578 38.6867 32.6102 38.6688C34.3531 38.6508 36.3477 38.6148 37.7313 37.2313C39.1148 35.8477 39.1508 33.8531 39.1688 32.1102C39.1867 31.1578 39.2047 30.1875 39.4383 29.5945C39.6719 29.0016 40.4086 28.2289 41.0914 27.5281C42.2773 26.2883 43.625 24.8687 43.625 23C43.625 21.1313 42.2773 19.7117 41.0914 18.4719ZM32.3945 19.7297L21.8648 29.7922C21.5926 30.0483 21.2323 30.1898 20.8586 30.1875C20.4904 30.1889 20.136 30.0472 19.8703 29.7922L14.6055 24.7609C14.4594 24.6335 14.3407 24.4779 14.2563 24.3034C14.172 24.129 14.1238 23.9393 14.1146 23.7457C14.1055 23.5521 14.1355 23.3587 14.203 23.177C14.2705 22.9954 14.3741 22.8292 14.5074 22.6886C14.6408 22.548 14.8012 22.4358 14.979 22.3587C15.1568 22.2817 15.3484 22.2414 15.5422 22.2403C15.7359 22.2391 15.928 22.2772 16.1067 22.3522C16.2854 22.4272 16.4471 22.5375 16.582 22.6766L20.8586 26.7555L30.418 17.6453C30.6975 17.4015 31.0604 17.2751 31.4309 17.2926C31.8015 17.3101 32.1509 17.4702 32.4061 17.7394C32.6613 18.0085 32.8026 18.3659 32.8005 18.7369C32.7983 19.1078 32.6529 19.4635 32.3945 19.7297Z"
    fill="#00AC4F" />
</svg>